<svg xmlns="http://www.w3.org/2000/svg" xmlns:xlink="http://www.w3.org/1999/xlink" version="1.1" width="256" height="256" viewBox="0 0 256 256" xml:space="preserve">

<defs>
</defs>
<g style="stroke: none; stroke-width: 0; stroke-dasharray: none; stroke-linecap: butt; stroke-linejoin: miter; stroke-miterlimit: 10; fill: none; fill-rule: nonzero; opacity: 1;" transform="translate(1.4065934065934016 1.4065934065934016) scale(2.81 2.81)" >
	<path d="M 37.677 50.406 c 0 -1.771 -1.441 -3.212 -3.212 -3.212 s -3.212 1.44 -3.212 3.212 s 1.441 3.213 3.212 3.213 S 37.677 52.178 37.677 50.406 z" style="stroke: none; stroke-width: 1; stroke-dasharray: none; stroke-linecap: butt; stroke-linejoin: miter; stroke-miterlimit: 10; fill: rgb(0,0,0); fill-rule: nonzero; opacity: 1;" transform=" matrix(1 0 0 1 0 0) " stroke-linecap="round" />
	<path d="M 55.535 63.83 c -1.771 0 -3.212 1.44 -3.212 3.212 s 1.44 3.213 3.212 3.213 s 3.213 -1.441 3.213 -3.213 S 57.307 63.83 55.535 63.83 z" style="stroke: none; stroke-width: 1; stroke-dasharray: none; stroke-linecap: butt; stroke-linejoin: miter; stroke-miterlimit: 10; fill: rgb(0,0,0); fill-rule: nonzero; opacity: 1;" transform=" matrix(1 0 0 1 0 0) " stroke-linecap="round" />
	<path d="M 68.107 19.123 L 50.549 2.235 c -3.099 -2.98 -7.999 -2.98 -11.098 0 L 21.893 19.123 c -2.851 2.742 -4.461 6.526 -4.461 10.481 v 52.391 c 0 4.421 3.584 8.005 8.004 8.005 h 39.128 c 4.421 0 8.004 -3.584 8.004 -8.005 V 29.604 C 72.569 25.649 70.958 21.865 68.107 19.123 z M 45 11.107 c 2.041 0 3.695 1.654 3.695 3.695 c 0 2.041 -1.654 3.695 -3.695 3.695 s -3.695 -1.654 -3.695 -3.695 C 41.305 12.762 42.959 11.107 45 11.107 z M 27.252 50.406 c 0 -3.977 3.235 -7.212 7.212 -7.212 s 7.212 3.236 7.212 7.212 c 0 3.978 -3.235 7.213 -7.212 7.213 S 27.252 54.384 27.252 50.406 z M 32.988 74.255 c -0.482 0 -0.966 -0.174 -1.35 -0.525 c -0.815 -0.746 -0.871 -2.011 -0.125 -2.825 l 24.782 -27.061 c 0.746 -0.814 2.011 -0.871 2.825 -0.125 c 0.814 0.746 0.87 2.011 0.124 2.826 L 34.464 73.605 C 34.069 74.036 33.53 74.255 32.988 74.255 z M 55.535 74.255 c -3.977 0 -7.212 -3.235 -7.212 -7.213 c 0 -3.977 3.235 -7.212 7.212 -7.212 c 3.978 0 7.213 3.235 7.213 7.212 C 62.748 71.02 59.513 74.255 55.535 74.255 z" style="stroke: none; stroke-width: 1; stroke-dasharray: none; stroke-linecap: butt; stroke-linejoin: miter; stroke-miterlimit: 10; fill: rgb(0,0,0); fill-rule: nonzero; opacity: 1;" transform=" matrix(1 0 0 1 0 0) " stroke-linecap="round" />
</g>
</svg>